<svg xmlns="http://www.w3.org/2000/svg" viewBox="0 0 70.39 28.46"><defs><style>.cls-1{fill:#fff;}</style></defs><g id="Layer_2" data-name="Layer 2"><g id="Layer_2-2" data-name="Layer 2"><path class="cls-1" d="M19.45,10.75v-.47c1.11,0,1.67-.48,1.67-1.43V1.65c0-.38-.26-.57-.77-.57a2.24,2.24,0,0,0-1.67.66,4.29,4.29,0,0,0-.95,2l-.48-.12L17.67.3l.68.07a4.4,4.4,0,0,0,.62,0h6a5.12,5.12,0,0,0,.67,0L26.35.3V3.56l-.43.06c-.12-1.66-1-2.5-2.48-2.5-.52,0-.78.18-.78.53v7.2c0,1,.56,1.43,1.69,1.43v.47Z"/><path class="cls-1" d="M31.51,10.75v-.47c.68,0,1-.22,1-.65V7.24c0-1.47-.47-2.2-1.41-2.2a1.64,1.64,0,0,0-1.78,1.62V9.5c0,.52.38.78,1.13.78v.47H27v-.47c.68,0,1-.26,1-.78V2.14c0-.83-.31-1.25-1-1.25V.47L29.33,0l0,5.4a2.85,2.85,0,0,1,2.26-1.25,2.74,2.74,0,0,1,1,.16,1.73,1.73,0,0,1,.68.43,1.91,1.91,0,0,1,.4.65,2.3,2.3,0,0,1,.13.79V9.63c0,.43.36.65,1.08.65v.47Z"/><path class="cls-1" d="M41.62,9.21a3.28,3.28,0,0,1-1.09,1.35,2.7,2.7,0,0,1-1.62.49,3.33,3.33,0,0,1-1.38-.27,2.75,2.75,0,0,1-1-.72A3.19,3.19,0,0,1,35.94,9a4.46,4.46,0,0,1-.2-1.33A4,4,0,0,1,36,6.32a3.67,3.67,0,0,1,.61-1.14,3.21,3.21,0,0,1,1-.8,2.74,2.74,0,0,1,1.25-.29,3.9,3.9,0,0,1,.88.1,2.29,2.29,0,0,1,.87.4,2.52,2.52,0,0,1,.7.85,3.86,3.86,0,0,1,.39,1.46.93.93,0,0,1,0,.34H37.42c-.19,0-.29.08-.29.23a3.74,3.74,0,0,0,.15,1.07,3,3,0,0,0,.44.87,2,2,0,0,0,.69.58,1.93,1.93,0,0,0,.9.21,1.75,1.75,0,0,0,1.13-.37A4.33,4.33,0,0,0,41.28,9ZM39.5,6.77a.57.57,0,0,0,.64-.65,1.9,1.9,0,0,0-.4-1,1.21,1.21,0,0,0-1-.45,1.35,1.35,0,0,0-.66.17,1.71,1.71,0,0,0-.5.43,2,2,0,0,0-.32.63,2.17,2.17,0,0,0-.11.72c0,.13.11.19.34.19Z"/><path class="cls-1" d="M.13,27.86v-.95Q3,26.91,3,24.63V9.72c0-1.27-1-1.9-3-1.9v-1H5.29l1.64,0,1,0,.92,0,1.26,0q7.1,0,7.1,6.15a5.83,5.83,0,0,1-.43,2.26A4.79,4.79,0,0,1,15.5,17a6.09,6.09,0,0,1-2.25,1.24,10.32,10.32,0,0,1-3.23.45c-.68,0-1.34,0-2-.08a18.69,18.69,0,0,1-1.89-.27V24.5c0,1.61,1,2.41,3.14,2.41v.95Zm7.35-20c-.89,0-1.33.56-1.33,1.68v7.64c.53.11,1.11.19,1.74.26s1.35.09,2.13.09a3.82,3.82,0,0,0,1.79-.39,3.84,3.84,0,0,0,1.24-1.05,4.39,4.39,0,0,0,.71-1.51A6.92,6.92,0,0,0,14,12.77q0-4.95-5.67-4.95Z"/><path class="cls-1" d="M28.6,24.72a6.77,6.77,0,0,1-2.22,2.76,5.55,5.55,0,0,1-3.3,1,6.81,6.81,0,0,1-2.79-.54,5.71,5.71,0,0,1-2-1.45,6.17,6.17,0,0,1-1.22-2.19,8.57,8.57,0,0,1-.41-2.7,8.21,8.21,0,0,1,.44-2.72,7.74,7.74,0,0,1,1.25-2.32,6.22,6.22,0,0,1,1.95-1.62,5.38,5.38,0,0,1,2.54-.6,8.15,8.15,0,0,1,1.79.21,4.61,4.61,0,0,1,1.76.81,5,5,0,0,1,1.43,1.72,8.25,8.25,0,0,1,.79,3,2.58,2.58,0,0,1-.09.7H20.07c-.4,0-.6.15-.6.47a7,7,0,0,0,.32,2.16,5.64,5.64,0,0,0,.88,1.77,4,4,0,0,0,1.4,1.19,3.87,3.87,0,0,0,1.84.43,3.62,3.62,0,0,0,2.3-.76,8.66,8.66,0,0,0,1.69-1.78Zm-4.31-4.95a1.16,1.16,0,0,0,1.3-1.33,3.73,3.73,0,0,0-.81-2.1,2.48,2.48,0,0,0-2.08-.91,2.73,2.73,0,0,0-1.33.33,3.51,3.51,0,0,0-1,.89,3.91,3.91,0,0,0-.65,1.27,4.9,4.9,0,0,0-.22,1.47c0,.26.23.38.7.38Z"/><path class="cls-1" d="M43.53,26.53A2.3,2.3,0,0,1,41,28.21a2.26,2.26,0,0,1-2.29-2.06,7.16,7.16,0,0,1-4.85,2.06,3.64,3.64,0,0,1-2.47-.71,2.92,2.92,0,0,1-.79-2.27q0-3.9,7.86-5.33V18.67c0-2.08-.81-3.11-2.42-3.11a4.22,4.22,0,0,0-1.82.35,1.32,1.32,0,0,0-.77,1.33.79.79,0,0,1,.29.39,1.82,1.82,0,0,1,.09.56c0,.8-.48,1.2-1.46,1.2a1.33,1.33,0,0,1-.92-.34A1.43,1.43,0,0,1,31.07,18a2.47,2.47,0,0,1,.45-1.4,4.1,4.1,0,0,1,1.16-1.15,6.39,6.39,0,0,1,3.58-1.1,5.68,5.68,0,0,1,3.75,1,4.19,4.19,0,0,1,1.11,3.27v6.88q0,1.17,1.08,1.17a1.62,1.62,0,0,0,1-.35ZM38.59,21a12.81,12.81,0,0,0-2,.33,6.56,6.56,0,0,0-1.71.67,3.74,3.74,0,0,0-1.21,1.09,2.84,2.84,0,0,0-.46,1.65,1.8,1.8,0,0,0,2,2.06,3.56,3.56,0,0,0,1.48-.27,2.59,2.59,0,0,0,1-.71,3.44,3.44,0,0,0,.57-1,6.27,6.27,0,0,0,.31-1.08Z"/><path class="cls-1" d="M53.58,27.86v-.95c.74,0,1.12-.17,1.12-.51l-3.52-5.07c-.24.17-.5.33-.78.49a9.94,9.94,0,0,1-1.06.49v3.14c0,1,.77,1.46,2.31,1.46v.95h-7v-.95c1.36,0,2-.53,2-1.59V9.37c0-1-.72-1.55-2.15-1.55v-1L49.34,6V20.85a14,14,0,0,0,1.39-1,18.43,18.43,0,0,0,1.51-1.27,12.52,12.52,0,0,0,1.2-1.27,1.71,1.71,0,0,0,.49-1q0-.6-1.77-.6V15H59v.82a3.77,3.77,0,0,0-1.18.25c-.48.17-1.1.41-1.84.7a21.5,21.5,0,0,1-1.72,1.67,9.27,9.27,0,0,1-1.41,1l4.37,5.93a3,3,0,0,0,2.28,1.59h.73v.95Z"/><path class="cls-1" d="M68.84,18.54Q67.37,15.27,65,15.27a3,3,0,0,0-1.71.48,1.75,1.75,0,0,0-.73,1.59,1.32,1.32,0,0,0,.58,1.08,7.3,7.3,0,0,0,1.46.83c.58.25,1.21.5,1.89.76a11.35,11.35,0,0,1,1.89.9,5.38,5.38,0,0,1,1.45,1.26A2.81,2.81,0,0,1,70.39,24,4.13,4.13,0,0,1,70,25.7a3.67,3.67,0,0,1-1,1.3,5.23,5.23,0,0,1-1.42.88,7.49,7.49,0,0,1-1.7.46,5,5,0,0,1-2.82-.83,4,4,0,0,1-1.9.7,22.93,22.93,0,0,1-.51-4.95h.86a10.51,10.51,0,0,0,.76,1.92,4.4,4.4,0,0,0,.92,1.24,3,3,0,0,0,1.14.65,5.19,5.19,0,0,0,1.42.19c1.76,0,2.64-.69,2.64-2.06a2.31,2.31,0,0,0-.21-1,1.91,1.91,0,0,0-.63-.73,5.86,5.86,0,0,0-1.07-.57c-.42-.18-.92-.37-1.49-.56s-.92-.33-1.42-.55A7.5,7.5,0,0,1,62.23,21a4.14,4.14,0,0,1-1.08-1.13,2.62,2.62,0,0,1-.43-1.5A4.82,4.82,0,0,1,61,16.73a3.39,3.39,0,0,1,.78-1.27,3.53,3.53,0,0,1,1.35-.84,5.73,5.73,0,0,1,2-.3,5.31,5.31,0,0,1,2.67.76A3.66,3.66,0,0,1,69,14.45a16,16,0,0,1,.57,4.09Z"/></g></g></svg>